<?xml version="1.0" encoding="utf-8" ?>
<svg baseProfile="full" height="450mm" version="1.1" viewBox="0 0 600 450" width="600mm" xmlns="http://www.w3.org/2000/svg" xmlns:ev="http://www.w3.org/2001/xml-events" xmlns:xlink="http://www.w3.org/1999/xlink"><defs /><g stroke="red" stroke-width="0.1"><line x1="250.0" x2="254.88190476190476" y1="125.0" y2="125.0" /><line x1="250.0" x2="254.88190476190476" y1="325.0" y2="325.0" /><line x1="254.88190476190476" x2="254.88190476190476" y1="125.0" y2="128.0" /><line x1="254.88190476190476" x2="254.88190476190476" y1="325.0" y2="322.0" /><line x1="254.88190476190476" x2="259.4038095238095" y1="128.0" y2="128.0" /><line x1="254.88190476190476" x2="259.4038095238095" y1="322.0" y2="322.0" /><line x1="259.4038095238095" x2="259.4038095238095" y1="125.0" y2="128.0" /><line x1="259.4038095238095" x2="259.4038095238095" y1="325.0" y2="322.0" /><line x1="259.4038095238095" x2="264.4057142857143" y1="125.0" y2="125.0" /><line x1="259.4038095238095" x2="264.4057142857143" y1="325.0" y2="325.0" /><line x1="264.4057142857143" x2="264.4057142857143" y1="125.0" y2="128.0" /><line x1="264.4057142857143" x2="264.4057142857143" y1="325.0" y2="322.0" /><line x1="264.4057142857143" x2="268.92761904761903" y1="128.0" y2="128.0" /><line x1="264.4057142857143" x2="268.92761904761903" y1="322.0" y2="322.0" /><line x1="268.92761904761903" x2="268.92761904761903" y1="125.0" y2="128.0" /><line x1="268.92761904761903" x2="268.92761904761903" y1="325.0" y2="322.0" /><line x1="268.92761904761903" x2="273.9295238095238" y1="125.0" y2="125.0" /><line x1="268.92761904761903" x2="273.9295238095238" y1="325.0" y2="325.0" /><line x1="273.9295238095238" x2="273.9295238095238" y1="125.0" y2="128.0" /><line x1="273.9295238095238" x2="273.9295238095238" y1="325.0" y2="322.0" /><line x1="273.9295238095238" x2="278.45142857142855" y1="128.0" y2="128.0" /><line x1="273.9295238095238" x2="278.45142857142855" y1="322.0" y2="322.0" /><line x1="278.45142857142855" x2="278.45142857142855" y1="125.0" y2="128.0" /><line x1="278.45142857142855" x2="278.45142857142855" y1="325.0" y2="322.0" /><line x1="278.45142857142855" x2="283.4533333333333" y1="125.0" y2="125.0" /><line x1="278.45142857142855" x2="283.4533333333333" y1="325.0" y2="325.0" /><line x1="283.4533333333333" x2="283.4533333333333" y1="125.0" y2="128.0" /><line x1="283.4533333333333" x2="283.4533333333333" y1="325.0" y2="322.0" /><line x1="283.4533333333333" x2="287.97523809523807" y1="128.0" y2="128.0" /><line x1="283.4533333333333" x2="287.97523809523807" y1="322.0" y2="322.0" /><line x1="287.97523809523807" x2="287.97523809523807" y1="125.0" y2="128.0" /><line x1="287.97523809523807" x2="287.97523809523807" y1="325.0" y2="322.0" /><line x1="287.97523809523807" x2="292.97714285714284" y1="125.0" y2="125.0" /><line x1="287.97523809523807" x2="292.97714285714284" y1="325.0" y2="325.0" /><line x1="292.97714285714284" x2="292.97714285714284" y1="125.0" y2="128.0" /><line x1="292.97714285714284" x2="292.97714285714284" y1="325.0" y2="322.0" /><line x1="292.97714285714284" x2="297.4990476190476" y1="128.0" y2="128.0" /><line x1="292.97714285714284" x2="297.4990476190476" y1="322.0" y2="322.0" /><line x1="297.4990476190476" x2="297.4990476190476" y1="125.0" y2="128.0" /><line x1="297.4990476190476" x2="297.4990476190476" y1="325.0" y2="322.0" /><line x1="297.4990476190476" x2="302.50095238095236" y1="125.0" y2="125.0" /><line x1="297.4990476190476" x2="302.50095238095236" y1="325.0" y2="325.0" /><line x1="302.50095238095236" x2="302.50095238095236" y1="125.0" y2="128.0" /><line x1="302.50095238095236" x2="302.50095238095236" y1="325.0" y2="322.0" /><line x1="302.50095238095236" x2="307.0228571428571" y1="128.0" y2="128.0" /><line x1="302.50095238095236" x2="307.0228571428571" y1="322.0" y2="322.0" /><line x1="307.0228571428571" x2="307.0228571428571" y1="125.0" y2="128.0" /><line x1="307.0228571428571" x2="307.0228571428571" y1="325.0" y2="322.0" /><line x1="307.0228571428571" x2="312.0247619047619" y1="125.0" y2="125.0" /><line x1="307.0228571428571" x2="312.0247619047619" y1="325.0" y2="325.0" /><line x1="312.0247619047619" x2="312.0247619047619" y1="125.0" y2="128.0" /><line x1="312.0247619047619" x2="312.0247619047619" y1="325.0" y2="322.0" /><line x1="312.0247619047619" x2="316.5466666666666" y1="128.0" y2="128.0" /><line x1="312.0247619047619" x2="316.5466666666666" y1="322.0" y2="322.0" /><line x1="316.5466666666666" x2="316.5466666666666" y1="125.0" y2="128.0" /><line x1="316.5466666666666" x2="316.5466666666666" y1="325.0" y2="322.0" /><line x1="316.5466666666666" x2="321.5485714285714" y1="125.0" y2="125.0" /><line x1="316.5466666666666" x2="321.5485714285714" y1="325.0" y2="325.0" /><line x1="321.5485714285714" x2="321.5485714285714" y1="125.0" y2="128.0" /><line x1="321.5485714285714" x2="321.5485714285714" y1="325.0" y2="322.0" /><line x1="321.5485714285714" x2="326.07047619047614" y1="128.0" y2="128.0" /><line x1="321.5485714285714" x2="326.07047619047614" y1="322.0" y2="322.0" /><line x1="326.07047619047614" x2="326.07047619047614" y1="125.0" y2="128.0" /><line x1="326.07047619047614" x2="326.07047619047614" y1="325.0" y2="322.0" /><line x1="326.07047619047614" x2="331.0723809523809" y1="125.0" y2="125.0" /><line x1="326.07047619047614" x2="331.0723809523809" y1="325.0" y2="325.0" /><line x1="331.0723809523809" x2="331.0723809523809" y1="125.0" y2="128.0" /><line x1="331.0723809523809" x2="331.0723809523809" y1="325.0" y2="322.0" /><line x1="331.0723809523809" x2="335.59428571428566" y1="128.0" y2="128.0" /><line x1="331.0723809523809" x2="335.59428571428566" y1="322.0" y2="322.0" /><line x1="335.59428571428566" x2="335.59428571428566" y1="125.0" y2="128.0" /><line x1="335.59428571428566" x2="335.59428571428566" y1="325.0" y2="322.0" /><line x1="335.59428571428566" x2="340.59619047619043" y1="125.0" y2="125.0" /><line x1="335.59428571428566" x2="340.59619047619043" y1="325.0" y2="325.0" /><line x1="340.59619047619043" x2="340.59619047619043" y1="125.0" y2="128.0" /><line x1="340.59619047619043" x2="340.59619047619043" y1="325.0" y2="322.0" /><line x1="340.59619047619043" x2="345.1180952380952" y1="128.0" y2="128.0" /><line x1="340.59619047619043" x2="345.1180952380952" y1="322.0" y2="322.0" /><line x1="345.1180952380952" x2="345.1180952380952" y1="125.0" y2="128.0" /><line x1="345.1180952380952" x2="345.1180952380952" y1="325.0" y2="322.0" /><line x1="345.1180952380952" x2="349.99999999999994" y1="125.0" y2="125.0" /><line x1="345.1180952380952" x2="349.99999999999994" y1="325.0" y2="325.0" /><line x1="250.0" x2="250.0" y1="125.0" y2="134.64380952380952" /><line x1="350.0" x2="350.0" y1="125.0" y2="134.64380952380952" /><line x1="250.0" x2="253.0" y1="134.64380952380952" y2="134.64380952380952" /><line x1="350.0" x2="347.0" y1="134.64380952380952" y2="134.64380952380952" /><line x1="253.0" x2="253.0" y1="134.64380952380952" y2="143.92761904761903" /><line x1="347.0" x2="347.0" y1="134.64380952380952" y2="143.92761904761903" /><line x1="250.0" x2="253.0" y1="143.92761904761903" y2="143.92761904761903" /><line x1="350.0" x2="347.0" y1="143.92761904761903" y2="143.92761904761903" /><line x1="250.0" x2="250.0" y1="143.92761904761903" y2="153.69142857142856" /><line x1="350.0" x2="350.0" y1="143.92761904761903" y2="153.69142857142856" /><line x1="250.0" x2="253.0" y1="153.69142857142856" y2="153.69142857142856" /><line x1="350.0" x2="347.0" y1="153.69142857142856" y2="153.69142857142856" /><line x1="253.0" x2="253.0" y1="153.69142857142856" y2="162.97523809523807" /><line x1="347.0" x2="347.0" y1="153.69142857142856" y2="162.97523809523807" /><line x1="250.0" x2="253.0" y1="162.97523809523807" y2="162.97523809523807" /><line x1="350.0" x2="347.0" y1="162.97523809523807" y2="162.97523809523807" /><line x1="250.0" x2="250.0" y1="162.97523809523807" y2="172.7390476190476" /><line x1="350.0" x2="350.0" y1="162.97523809523807" y2="172.7390476190476" /><line x1="250.0" x2="253.0" y1="172.7390476190476" y2="172.7390476190476" /><line x1="350.0" x2="347.0" y1="172.7390476190476" y2="172.7390476190476" /><line x1="253.0" x2="253.0" y1="172.7390476190476" y2="182.0228571428571" /><line x1="347.0" x2="347.0" y1="172.7390476190476" y2="182.0228571428571" /><line x1="250.0" x2="253.0" y1="182.0228571428571" y2="182.0228571428571" /><line x1="350.0" x2="347.0" y1="182.0228571428571" y2="182.0228571428571" /><line x1="250.0" x2="250.0" y1="182.0228571428571" y2="191.78666666666663" /><line x1="350.0" x2="350.0" y1="182.0228571428571" y2="191.78666666666663" /><line x1="250.0" x2="253.0" y1="191.78666666666663" y2="191.78666666666663" /><line x1="350.0" x2="347.0" y1="191.78666666666663" y2="191.78666666666663" /><line x1="253.0" x2="253.0" y1="191.78666666666663" y2="201.07047619047614" /><line x1="347.0" x2="347.0" y1="191.78666666666663" y2="201.07047619047614" /><line x1="250.0" x2="253.0" y1="201.07047619047614" y2="201.07047619047614" /><line x1="350.0" x2="347.0" y1="201.07047619047614" y2="201.07047619047614" /><line x1="250.0" x2="250.0" y1="201.07047619047614" y2="210.83428571428567" /><line x1="350.0" x2="350.0" y1="201.07047619047614" y2="210.83428571428567" /><line x1="250.0" x2="253.0" y1="210.83428571428567" y2="210.83428571428567" /><line x1="350.0" x2="347.0" y1="210.83428571428567" y2="210.83428571428567" /><line x1="253.0" x2="253.0" y1="210.83428571428567" y2="220.11809523809518" /><line x1="347.0" x2="347.0" y1="210.83428571428567" y2="220.11809523809518" /><line x1="250.0" x2="253.0" y1="220.11809523809518" y2="220.11809523809518" /><line x1="350.0" x2="347.0" y1="220.11809523809518" y2="220.11809523809518" /><line x1="250.0" x2="250.0" y1="220.11809523809518" y2="229.8819047619047" /><line x1="350.0" x2="350.0" y1="220.11809523809518" y2="229.8819047619047" /><line x1="250.0" x2="253.0" y1="229.8819047619047" y2="229.8819047619047" /><line x1="350.0" x2="347.0" y1="229.8819047619047" y2="229.8819047619047" /><line x1="253.0" x2="253.0" y1="229.8819047619047" y2="239.16571428571422" /><line x1="347.0" x2="347.0" y1="229.8819047619047" y2="239.16571428571422" /><line x1="250.0" x2="253.0" y1="239.16571428571422" y2="239.16571428571422" /><line x1="350.0" x2="347.0" y1="239.16571428571422" y2="239.16571428571422" /><line x1="250.0" x2="250.0" y1="239.16571428571422" y2="248.92952380952374" /><line x1="350.0" x2="350.0" y1="239.16571428571422" y2="248.92952380952374" /><line x1="250.0" x2="253.0" y1="248.92952380952374" y2="248.92952380952374" /><line x1="350.0" x2="347.0" y1="248.92952380952374" y2="248.92952380952374" /><line x1="253.0" x2="253.0" y1="248.92952380952374" y2="258.21333333333325" /><line x1="347.0" x2="347.0" y1="248.92952380952374" y2="258.21333333333325" /><line x1="250.0" x2="253.0" y1="258.21333333333325" y2="258.21333333333325" /><line x1="350.0" x2="347.0" y1="258.21333333333325" y2="258.21333333333325" /><line x1="250.0" x2="250.0" y1="258.21333333333325" y2="267.9771428571428" /><line x1="350.0" x2="350.0" y1="258.21333333333325" y2="267.9771428571428" /><line x1="250.0" x2="253.0" y1="267.9771428571428" y2="267.9771428571428" /><line x1="350.0" x2="347.0" y1="267.9771428571428" y2="267.9771428571428" /><line x1="253.0" x2="253.0" y1="267.9771428571428" y2="277.2609523809523" /><line x1="347.0" x2="347.0" y1="267.9771428571428" y2="277.2609523809523" /><line x1="250.0" x2="253.0" y1="277.2609523809523" y2="277.2609523809523" /><line x1="350.0" x2="347.0" y1="277.2609523809523" y2="277.2609523809523" /><line x1="250.0" x2="250.0" y1="277.2609523809523" y2="287.0247619047618" /><line x1="350.0" x2="350.0" y1="277.2609523809523" y2="287.0247619047618" /><line x1="250.0" x2="253.0" y1="287.0247619047618" y2="287.0247619047618" /><line x1="350.0" x2="347.0" y1="287.0247619047618" y2="287.0247619047618" /><line x1="253.0" x2="253.0" y1="287.0247619047618" y2="296.3085714285713" /><line x1="347.0" x2="347.0" y1="287.0247619047618" y2="296.3085714285713" /><line x1="250.0" x2="253.0" y1="296.3085714285713" y2="296.3085714285713" /><line x1="350.0" x2="347.0" y1="296.3085714285713" y2="296.3085714285713" /><line x1="250.0" x2="250.0" y1="296.3085714285713" y2="306.07238095238085" /><line x1="350.0" x2="350.0" y1="296.3085714285713" y2="306.07238095238085" /><line x1="250.0" x2="253.0" y1="306.07238095238085" y2="306.07238095238085" /><line x1="350.0" x2="347.0" y1="306.07238095238085" y2="306.07238095238085" /><line x1="253.0" x2="253.0" y1="306.07238095238085" y2="315.35619047619036" /><line x1="347.0" x2="347.0" y1="306.07238095238085" y2="315.35619047619036" /><line x1="250.0" x2="253.0" y1="315.35619047619036" y2="315.35619047619036" /><line x1="350.0" x2="347.0" y1="315.35619047619036" y2="315.35619047619036" /><line x1="250.0" x2="250.0" y1="315.35619047619036" y2="324.9999999999999" /><line x1="350.0" x2="350.0" y1="315.35619047619036" y2="324.9999999999999" /><line x1="363.0" x2="390.27272727272725" y1="128.0" y2="128.0" /><line x1="390.27272727272725" x2="390.27272727272725" y1="128.0" y2="125.0" /><line x1="363.0" x2="390.27272727272725" y1="322.0" y2="322.0" /><line x1="390.27272727272725" x2="390.27272727272725" y1="322.0" y2="325.0" /><line x1="390.27272727272725" x2="417.5454545454545" y1="125.0" y2="125.0" /><line x1="417.5454545454545" x2="417.5454545454545" y1="128.0" y2="125.0" /><line x1="390.27272727272725" x2="417.5454545454545" y1="325.0" y2="325.0" /><line x1="417.5454545454545" x2="417.5454545454545" y1="322.0" y2="325.0" /><line x1="417.5454545454545" x2="444.81818181818176" y1="128.0" y2="128.0" /><line x1="444.81818181818176" x2="444.81818181818176" y1="128.0" y2="125.0" /><line x1="417.5454545454545" x2="444.81818181818176" y1="322.0" y2="322.0" /><line x1="444.81818181818176" x2="444.81818181818176" y1="322.0" y2="325.0" /><line x1="444.81818181818176" x2="472.090909090909" y1="125.0" y2="125.0" /><line x1="472.090909090909" x2="472.090909090909" y1="128.0" y2="125.0" /><line x1="444.81818181818176" x2="472.090909090909" y1="325.0" y2="325.0" /><line x1="472.090909090909" x2="472.090909090909" y1="322.0" y2="325.0" /><line x1="472.090909090909" x2="499.36363636363626" y1="128.0" y2="128.0" /><line x1="499.36363636363626" x2="499.36363636363626" y1="128.0" y2="125.0" /><line x1="472.090909090909" x2="499.36363636363626" y1="322.0" y2="322.0" /><line x1="499.36363636363626" x2="499.36363636363626" y1="322.0" y2="325.0" /><line x1="499.36363636363626" x2="526.6363636363635" y1="125.0" y2="125.0" /><line x1="526.6363636363635" x2="526.6363636363635" y1="128.0" y2="125.0" /><line x1="499.36363636363626" x2="526.6363636363635" y1="325.0" y2="325.0" /><line x1="526.6363636363635" x2="526.6363636363635" y1="322.0" y2="325.0" /><line x1="526.6363636363635" x2="553.9090909090908" y1="128.0" y2="128.0" /><line x1="553.9090909090908" x2="553.9090909090908" y1="128.0" y2="125.0" /><line x1="526.6363636363635" x2="553.9090909090908" y1="322.0" y2="322.0" /><line x1="553.9090909090908" x2="553.9090909090908" y1="322.0" y2="325.0" /><line x1="553.9090909090908" x2="581.181818181818" y1="125.0" y2="125.0" /><line x1="581.181818181818" x2="581.181818181818" y1="128.0" y2="125.0" /><line x1="553.9090909090908" x2="581.181818181818" y1="325.0" y2="325.0" /><line x1="581.181818181818" x2="581.181818181818" y1="322.0" y2="325.0" /><line x1="581.181818181818" x2="608.4545454545453" y1="128.0" y2="128.0" /><line x1="608.4545454545453" x2="608.4545454545453" y1="128.0" y2="125.0" /><line x1="581.181818181818" x2="608.4545454545453" y1="322.0" y2="322.0" /><line x1="608.4545454545453" x2="608.4545454545453" y1="322.0" y2="325.0" /><line x1="608.4545454545453" x2="635.7272727272725" y1="125.0" y2="125.0" /><line x1="635.7272727272725" x2="635.7272727272725" y1="128.0" y2="125.0" /><line x1="608.4545454545453" x2="635.7272727272725" y1="325.0" y2="325.0" /><line x1="635.7272727272725" x2="635.7272727272725" y1="322.0" y2="325.0" /><line x1="635.7272727272725" x2="662.9999999999998" y1="128.0" y2="128.0" /><line x1="635.7272727272725" x2="662.9999999999998" y1="322.0" y2="322.0" /><line x1="663.0" x2="663.0" y1="128.0" y2="322.0" /><line x1="363.0" x2="363.0" y1="128.0" y2="134.52380952380952" /><line x1="360.0" x2="360.0" y1="134.52380952380952" y2="144.04761904761904" /><line x1="360.0" x2="363.0" y1="134.52380952380952" y2="134.52380952380952" /><line x1="363.0" x2="363.0" y1="144.04761904761904" y2="153.57142857142856" /><line x1="360.0" x2="363.0" y1="144.04761904761904" y2="144.04761904761904" /><line x1="360.0" x2="360.0" y1="153.57142857142856" y2="163.09523809523807" /><line x1="360.0" x2="363.0" y1="153.57142857142856" y2="153.57142857142856" /><line x1="363.0" x2="363.0" y1="163.09523809523807" y2="172.6190476190476" /><line x1="360.0" x2="363.0" y1="163.09523809523807" y2="163.09523809523807" /><line x1="360.0" x2="360.0" y1="172.6190476190476" y2="182.1428571428571" /><line x1="360.0" x2="363.0" y1="172.6190476190476" y2="172.6190476190476" /><line x1="363.0" x2="363.0" y1="182.1428571428571" y2="191.66666666666663" /><line x1="360.0" x2="363.0" y1="182.1428571428571" y2="182.1428571428571" /><line x1="360.0" x2="360.0" y1="191.66666666666663" y2="201.19047619047615" /><line x1="360.0" x2="363.0" y1="191.66666666666663" y2="191.66666666666663" /><line x1="363.0" x2="363.0" y1="201.19047619047615" y2="210.71428571428567" /><line x1="360.0" x2="363.0" y1="201.19047619047615" y2="201.19047619047615" /><line x1="360.0" x2="360.0" y1="210.71428571428567" y2="220.23809523809518" /><line x1="360.0" x2="363.0" y1="210.71428571428567" y2="210.71428571428567" /><line x1="363.0" x2="363.0" y1="220.23809523809518" y2="229.7619047619047" /><line x1="360.0" x2="363.0" y1="220.23809523809518" y2="220.23809523809518" /><line x1="360.0" x2="360.0" y1="229.7619047619047" y2="239.28571428571422" /><line x1="360.0" x2="363.0" y1="229.7619047619047" y2="229.7619047619047" /><line x1="363.0" x2="363.0" y1="239.28571428571422" y2="248.80952380952374" /><line x1="360.0" x2="363.0" y1="239.28571428571422" y2="239.28571428571422" /><line x1="360.0" x2="360.0" y1="248.80952380952374" y2="258.33333333333326" /><line x1="360.0" x2="363.0" y1="248.80952380952374" y2="248.80952380952374" /><line x1="363.0" x2="363.0" y1="258.33333333333326" y2="267.8571428571428" /><line x1="360.0" x2="363.0" y1="258.33333333333326" y2="258.33333333333326" /><line x1="360.0" x2="360.0" y1="267.8571428571428" y2="277.3809523809523" /><line x1="360.0" x2="363.0" y1="267.8571428571428" y2="267.8571428571428" /><line x1="363.0" x2="363.0" y1="277.3809523809523" y2="286.9047619047618" /><line x1="360.0" x2="363.0" y1="277.3809523809523" y2="277.3809523809523" /><line x1="360.0" x2="360.0" y1="286.9047619047618" y2="296.42857142857133" /><line x1="360.0" x2="363.0" y1="286.9047619047618" y2="286.9047619047618" /><line x1="363.0" x2="363.0" y1="296.42857142857133" y2="305.95238095238085" /><line x1="360.0" x2="363.0" y1="296.42857142857133" y2="296.42857142857133" /><line x1="360.0" x2="360.0" y1="305.95238095238085" y2="315.47619047619037" /><line x1="360.0" x2="363.0" y1="305.95238095238085" y2="305.95238095238085" /><line x1="363.0" x2="363.0" y1="315.47619047619037" y2="321.9999999999999" /><line x1="360.0" x2="363.0" y1="315.47619047619037" y2="315.47619047619037" /><line x1="237.0" x2="209.72727272727272" y1="128.0" y2="128.0" /><line x1="209.72727272727272" x2="209.72727272727272" y1="128.0" y2="125.0" /><line x1="237.0" x2="209.72727272727272" y1="322.0" y2="322.0" /><line x1="209.72727272727272" x2="209.72727272727272" y1="322.0" y2="325.0" /><line x1="209.72727272727272" x2="182.45454545454544" y1="125.0" y2="125.0" /><line x1="182.45454545454544" x2="182.45454545454544" y1="128.0" y2="125.0" /><line x1="209.72727272727272" x2="182.45454545454544" y1="325.0" y2="325.0" /><line x1="182.45454545454544" x2="182.45454545454544" y1="322.0" y2="325.0" /><line x1="182.45454545454544" x2="155.18181818181816" y1="128.0" y2="128.0" /><line x1="155.18181818181816" x2="155.18181818181816" y1="128.0" y2="125.0" /><line x1="182.45454545454544" x2="155.18181818181816" y1="322.0" y2="322.0" /><line x1="155.18181818181816" x2="155.18181818181816" y1="322.0" y2="325.0" /><line x1="155.18181818181816" x2="127.90909090909088" y1="125.0" y2="125.0" /><line x1="127.90909090909088" x2="127.90909090909088" y1="128.0" y2="125.0" /><line x1="155.18181818181816" x2="127.90909090909088" y1="325.0" y2="325.0" /><line x1="127.90909090909088" x2="127.90909090909088" y1="322.0" y2="325.0" /><line x1="127.90909090909088" x2="100.6363636363636" y1="128.0" y2="128.0" /><line x1="100.6363636363636" x2="100.6363636363636" y1="128.0" y2="125.0" /><line x1="127.90909090909088" x2="100.6363636363636" y1="322.0" y2="322.0" /><line x1="100.6363636363636" x2="100.6363636363636" y1="322.0" y2="325.0" /><line x1="100.6363636363636" x2="73.36363636363632" y1="125.0" y2="125.0" /><line x1="73.36363636363632" x2="73.36363636363632" y1="128.0" y2="125.0" /><line x1="100.6363636363636" x2="73.36363636363632" y1="325.0" y2="325.0" /><line x1="73.36363636363632" x2="73.36363636363632" y1="322.0" y2="325.0" /><line x1="73.36363636363632" x2="46.090909090909044" y1="128.0" y2="128.0" /><line x1="46.090909090909044" x2="46.090909090909044" y1="128.0" y2="125.0" /><line x1="73.36363636363632" x2="46.090909090909044" y1="322.0" y2="322.0" /><line x1="46.090909090909044" x2="46.090909090909044" y1="322.0" y2="325.0" /><line x1="46.090909090909044" x2="18.81818181818177" y1="125.0" y2="125.0" /><line x1="18.81818181818177" x2="18.81818181818177" y1="128.0" y2="125.0" /><line x1="46.090909090909044" x2="18.81818181818177" y1="325.0" y2="325.0" /><line x1="18.81818181818177" x2="18.81818181818177" y1="322.0" y2="325.0" /><line x1="18.81818181818177" x2="-8.454545454545503" y1="128.0" y2="128.0" /><line x1="-8.454545454545503" x2="-8.454545454545503" y1="128.0" y2="125.0" /><line x1="18.81818181818177" x2="-8.454545454545503" y1="322.0" y2="322.0" /><line x1="-8.454545454545503" x2="-8.454545454545503" y1="322.0" y2="325.0" /><line x1="-8.454545454545503" x2="-35.727272727272776" y1="125.0" y2="125.0" /><line x1="-35.727272727272776" x2="-35.727272727272776" y1="128.0" y2="125.0" /><line x1="-8.454545454545503" x2="-35.727272727272776" y1="325.0" y2="325.0" /><line x1="-35.727272727272776" x2="-35.727272727272776" y1="322.0" y2="325.0" /><line x1="-35.727272727272776" x2="-63.00000000000005" y1="128.0" y2="128.0" /><line x1="-35.727272727272776" x2="-63.00000000000005" y1="322.0" y2="322.0" /><line x1="-63.0" x2="-63.0" y1="128.0" y2="322.0" /><line x1="237.0" x2="237.0" y1="128.0" y2="134.52380952380952" /><line x1="240.0" x2="240.0" y1="134.52380952380952" y2="144.04761904761904" /><line x1="237.0" x2="240.0" y1="134.52380952380952" y2="134.52380952380952" /><line x1="237.0" x2="237.0" y1="144.04761904761904" y2="153.57142857142856" /><line x1="237.0" x2="240.0" y1="144.04761904761904" y2="144.04761904761904" /><line x1="240.0" x2="240.0" y1="153.57142857142856" y2="163.09523809523807" /><line x1="237.0" x2="240.0" y1="153.57142857142856" y2="153.57142857142856" /><line x1="237.0" x2="237.0" y1="163.09523809523807" y2="172.6190476190476" /><line x1="237.0" x2="240.0" y1="163.09523809523807" y2="163.09523809523807" /><line x1="240.0" x2="240.0" y1="172.6190476190476" y2="182.1428571428571" /><line x1="237.0" x2="240.0" y1="172.6190476190476" y2="172.6190476190476" /><line x1="237.0" x2="237.0" y1="182.1428571428571" y2="191.66666666666663" /><line x1="237.0" x2="240.0" y1="182.1428571428571" y2="182.1428571428571" /><line x1="240.0" x2="240.0" y1="191.66666666666663" y2="201.19047619047615" /><line x1="237.0" x2="240.0" y1="191.66666666666663" y2="191.66666666666663" /><line x1="237.0" x2="237.0" y1="201.19047619047615" y2="210.71428571428567" /><line x1="237.0" x2="240.0" y1="201.19047619047615" y2="201.19047619047615" /><line x1="240.0" x2="240.0" y1="210.71428571428567" y2="220.23809523809518" /><line x1="237.0" x2="240.0" y1="210.71428571428567" y2="210.71428571428567" /><line x1="237.0" x2="237.0" y1="220.23809523809518" y2="229.7619047619047" /><line x1="237.0" x2="240.0" y1="220.23809523809518" y2="220.23809523809518" /><line x1="240.0" x2="240.0" y1="229.7619047619047" y2="239.28571428571422" /><line x1="237.0" x2="240.0" y1="229.7619047619047" y2="229.7619047619047" /><line x1="237.0" x2="237.0" y1="239.28571428571422" y2="248.80952380952374" /><line x1="237.0" x2="240.0" y1="239.28571428571422" y2="239.28571428571422" /><line x1="240.0" x2="240.0" y1="248.80952380952374" y2="258.33333333333326" /><line x1="237.0" x2="240.0" y1="248.80952380952374" y2="248.80952380952374" /><line x1="237.0" x2="237.0" y1="258.33333333333326" y2="267.8571428571428" /><line x1="237.0" x2="240.0" y1="258.33333333333326" y2="258.33333333333326" /><line x1="240.0" x2="240.0" y1="267.8571428571428" y2="277.3809523809523" /><line x1="237.0" x2="240.0" y1="267.8571428571428" y2="267.8571428571428" /><line x1="237.0" x2="237.0" y1="277.3809523809523" y2="286.9047619047618" /><line x1="237.0" x2="240.0" y1="277.3809523809523" y2="277.3809523809523" /><line x1="240.0" x2="240.0" y1="286.9047619047618" y2="296.42857142857133" /><line x1="237.0" x2="240.0" y1="286.9047619047618" y2="286.9047619047618" /><line x1="237.0" x2="237.0" y1="296.42857142857133" y2="305.95238095238085" /><line x1="237.0" x2="240.0" y1="296.42857142857133" y2="296.42857142857133" /><line x1="240.0" x2="240.0" y1="305.95238095238085" y2="315.47619047619037" /><line x1="237.0" x2="240.0" y1="305.95238095238085" y2="305.95238095238085" /><line x1="237.0" x2="237.0" y1="315.47619047619037" y2="321.9999999999999" /><line x1="237.0" x2="240.0" y1="315.47619047619037" y2="315.47619047619037" /><line x1="250.0" x2="250.0" y1="112.0" y2="84.72727272727272" /><line x1="250.0" x2="253.0" y1="84.72727272727272" y2="84.72727272727272" /><line x1="350.0" x2="350.0" y1="112.0" y2="84.72727272727272" /><line x1="350.0" x2="347.0" y1="84.72727272727272" y2="84.72727272727272" /><line x1="253.0" x2="253.0" y1="84.72727272727272" y2="57.454545454545446" /><line x1="250.0" x2="253.0" y1="57.454545454545446" y2="57.454545454545446" /><line x1="347.0" x2="347.0" y1="84.72727272727272" y2="57.454545454545446" /><line x1="350.0" x2="347.0" y1="57.454545454545446" y2="57.454545454545446" /><line x1="250.0" x2="250.0" y1="57.454545454545446" y2="30.181818181818173" /><line x1="250.0" x2="253.0" y1="30.181818181818173" y2="30.181818181818173" /><line x1="350.0" x2="350.0" y1="57.454545454545446" y2="30.181818181818173" /><line x1="350.0" x2="347.0" y1="30.181818181818173" y2="30.181818181818173" /><line x1="253.0" x2="253.0" y1="30.181818181818173" y2="2.9090909090908994" /><line x1="250.0" x2="253.0" y1="2.9090909090908994" y2="2.9090909090908994" /><line x1="347.0" x2="347.0" y1="30.181818181818173" y2="2.9090909090908994" /><line x1="350.0" x2="347.0" y1="2.9090909090908994" y2="2.9090909090908994" /><line x1="250.0" x2="250.0" y1="2.9090909090908994" y2="-24.363636363636374" /><line x1="250.0" x2="253.0" y1="-24.363636363636374" y2="-24.363636363636374" /><line x1="350.0" x2="350.0" y1="2.9090909090908994" y2="-24.363636363636374" /><line x1="350.0" x2="347.0" y1="-24.363636363636374" y2="-24.363636363636374" /><line x1="253.0" x2="253.0" y1="-24.363636363636374" y2="-51.63636363636365" /><line x1="250.0" x2="253.0" y1="-51.63636363636365" y2="-51.63636363636365" /><line x1="347.0" x2="347.0" y1="-24.363636363636374" y2="-51.63636363636365" /><line x1="350.0" x2="347.0" y1="-51.63636363636365" y2="-51.63636363636365" /><line x1="250.0" x2="250.0" y1="-51.63636363636365" y2="-78.90909090909092" /><line x1="250.0" x2="253.0" y1="-78.90909090909092" y2="-78.90909090909092" /><line x1="350.0" x2="350.0" y1="-51.63636363636365" y2="-78.90909090909092" /><line x1="350.0" x2="347.0" y1="-78.90909090909092" y2="-78.90909090909092" /><line x1="253.0" x2="253.0" y1="-78.90909090909092" y2="-106.18181818181819" /><line x1="250.0" x2="253.0" y1="-106.18181818181819" y2="-106.18181818181819" /><line x1="347.0" x2="347.0" y1="-78.90909090909092" y2="-106.18181818181819" /><line x1="350.0" x2="347.0" y1="-106.18181818181819" y2="-106.18181818181819" /><line x1="250.0" x2="250.0" y1="-106.18181818181819" y2="-133.45454545454547" /><line x1="250.0" x2="253.0" y1="-133.45454545454547" y2="-133.45454545454547" /><line x1="350.0" x2="350.0" y1="-106.18181818181819" y2="-133.45454545454547" /><line x1="350.0" x2="347.0" y1="-133.45454545454547" y2="-133.45454545454547" /><line x1="253.0" x2="253.0" y1="-133.45454545454547" y2="-160.72727272727275" /><line x1="250.0" x2="253.0" y1="-160.72727272727275" y2="-160.72727272727275" /><line x1="347.0" x2="347.0" y1="-133.45454545454547" y2="-160.72727272727275" /><line x1="350.0" x2="347.0" y1="-160.72727272727275" y2="-160.72727272727275" /><line x1="250.0" x2="250.0" y1="-160.72727272727275" y2="-188.00000000000003" /><line x1="250.0" x2="253.0" y1="-188.00000000000003" y2="-188.00000000000003" /><line x1="350.0" x2="350.0" y1="-160.72727272727275" y2="-188.00000000000003" /><line x1="350.0" x2="347.0" y1="-188.00000000000003" y2="-188.00000000000003" /><line x1="250.0" x2="350.0" y1="-188.0" y2="-188.0" /><line x1="250.0" x2="254.76190476190476" y1="112.0" y2="112.0" /><line x1="254.76190476190476" x2="259.5238095238095" y1="115.0" y2="115.0" /><line x1="254.76190476190476" x2="254.76190476190476" y1="115.0" y2="112.0" /><line x1="259.5238095238095" x2="264.2857142857143" y1="112.0" y2="112.0" /><line x1="259.5238095238095" x2="259.5238095238095" y1="115.0" y2="112.0" /><line x1="264.2857142857143" x2="269.04761904761904" y1="115.0" y2="115.0" /><line x1="264.2857142857143" x2="264.2857142857143" y1="115.0" y2="112.0" /><line x1="269.04761904761904" x2="273.8095238095238" y1="112.0" y2="112.0" /><line x1="269.04761904761904" x2="269.04761904761904" y1="115.0" y2="112.0" /><line x1="273.8095238095238" x2="278.57142857142856" y1="115.0" y2="115.0" /><line x1="273.8095238095238" x2="273.8095238095238" y1="115.0" y2="112.0" /><line x1="278.57142857142856" x2="283.3333333333333" y1="112.0" y2="112.0" /><line x1="278.57142857142856" x2="278.57142857142856" y1="115.0" y2="112.0" /><line x1="283.3333333333333" x2="288.0952380952381" y1="115.0" y2="115.0" /><line x1="283.3333333333333" x2="283.3333333333333" y1="115.0" y2="112.0" /><line x1="288.0952380952381" x2="292.85714285714283" y1="112.0" y2="112.0" /><line x1="288.0952380952381" x2="288.0952380952381" y1="115.0" y2="112.0" /><line x1="292.85714285714283" x2="297.6190476190476" y1="115.0" y2="115.0" /><line x1="292.85714285714283" x2="292.85714285714283" y1="115.0" y2="112.0" /><line x1="297.6190476190476" x2="302.38095238095235" y1="112.0" y2="112.0" /><line x1="297.6190476190476" x2="297.6190476190476" y1="115.0" y2="112.0" /><line x1="302.38095238095235" x2="307.1428571428571" y1="115.0" y2="115.0" /><line x1="302.38095238095235" x2="302.38095238095235" y1="115.0" y2="112.0" /><line x1="307.1428571428571" x2="311.90476190476187" y1="112.0" y2="112.0" /><line x1="307.1428571428571" x2="307.1428571428571" y1="115.0" y2="112.0" /><line x1="311.90476190476187" x2="316.66666666666663" y1="115.0" y2="115.0" /><line x1="311.90476190476187" x2="311.90476190476187" y1="115.0" y2="112.0" /><line x1="316.66666666666663" x2="321.4285714285714" y1="112.0" y2="112.0" /><line x1="316.66666666666663" x2="316.66666666666663" y1="115.0" y2="112.0" /><line x1="321.4285714285714" x2="326.19047619047615" y1="115.0" y2="115.0" /><line x1="321.4285714285714" x2="321.4285714285714" y1="115.0" y2="112.0" /><line x1="326.19047619047615" x2="330.9523809523809" y1="112.0" y2="112.0" /><line x1="326.19047619047615" x2="326.19047619047615" y1="115.0" y2="112.0" /><line x1="330.9523809523809" x2="335.71428571428567" y1="115.0" y2="115.0" /><line x1="330.9523809523809" x2="330.9523809523809" y1="115.0" y2="112.0" /><line x1="335.71428571428567" x2="340.4761904761904" y1="112.0" y2="112.0" /><line x1="335.71428571428567" x2="335.71428571428567" y1="115.0" y2="112.0" /><line x1="340.4761904761904" x2="345.2380952380952" y1="115.0" y2="115.0" /><line x1="340.4761904761904" x2="340.4761904761904" y1="115.0" y2="112.0" /><line x1="345.2380952380952" x2="349.99999999999994" y1="112.0" y2="112.0" /><line x1="345.2380952380952" x2="345.2380952380952" y1="115.0" y2="112.0" /><line x1="250.0" x2="250.0" y1="338.0" y2="365.27272727272725" /><line x1="250.0" x2="253.0" y1="365.27272727272725" y2="365.27272727272725" /><line x1="350.0" x2="350.0" y1="338.0" y2="365.27272727272725" /><line x1="350.0" x2="347.0" y1="365.27272727272725" y2="365.27272727272725" /><line x1="253.0" x2="253.0" y1="365.27272727272725" y2="392.5454545454545" /><line x1="250.0" x2="253.0" y1="392.5454545454545" y2="392.5454545454545" /><line x1="347.0" x2="347.0" y1="365.27272727272725" y2="392.5454545454545" /><line x1="350.0" x2="347.0" y1="392.5454545454545" y2="392.5454545454545" /><line x1="250.0" x2="250.0" y1="392.5454545454545" y2="419.81818181818176" /><line x1="250.0" x2="253.0" y1="419.81818181818176" y2="419.81818181818176" /><line x1="350.0" x2="350.0" y1="392.5454545454545" y2="419.81818181818176" /><line x1="350.0" x2="347.0" y1="419.81818181818176" y2="419.81818181818176" /><line x1="253.0" x2="253.0" y1="419.81818181818176" y2="447.090909090909" /><line x1="250.0" x2="253.0" y1="447.090909090909" y2="447.090909090909" /><line x1="347.0" x2="347.0" y1="419.81818181818176" y2="447.090909090909" /><line x1="350.0" x2="347.0" y1="447.090909090909" y2="447.090909090909" /><line x1="250.0" x2="250.0" y1="447.090909090909" y2="474.36363636363626" /><line x1="250.0" x2="253.0" y1="474.36363636363626" y2="474.36363636363626" /><line x1="350.0" x2="350.0" y1="447.090909090909" y2="474.36363636363626" /><line x1="350.0" x2="347.0" y1="474.36363636363626" y2="474.36363636363626" /><line x1="253.0" x2="253.0" y1="474.36363636363626" y2="501.6363636363635" /><line x1="250.0" x2="253.0" y1="501.6363636363635" y2="501.6363636363635" /><line x1="347.0" x2="347.0" y1="474.36363636363626" y2="501.6363636363635" /><line x1="350.0" x2="347.0" y1="501.6363636363635" y2="501.6363636363635" /><line x1="250.0" x2="250.0" y1="501.6363636363635" y2="528.9090909090908" /><line x1="250.0" x2="253.0" y1="528.9090909090908" y2="528.9090909090908" /><line x1="350.0" x2="350.0" y1="501.6363636363635" y2="528.9090909090908" /><line x1="350.0" x2="347.0" y1="528.9090909090908" y2="528.9090909090908" /><line x1="253.0" x2="253.0" y1="528.9090909090908" y2="556.181818181818" /><line x1="250.0" x2="253.0" y1="556.181818181818" y2="556.181818181818" /><line x1="347.0" x2="347.0" y1="528.9090909090908" y2="556.181818181818" /><line x1="350.0" x2="347.0" y1="556.181818181818" y2="556.181818181818" /><line x1="250.0" x2="250.0" y1="556.181818181818" y2="583.4545454545453" /><line x1="250.0" x2="253.0" y1="583.4545454545453" y2="583.4545454545453" /><line x1="350.0" x2="350.0" y1="556.181818181818" y2="583.4545454545453" /><line x1="350.0" x2="347.0" y1="583.4545454545453" y2="583.4545454545453" /><line x1="253.0" x2="253.0" y1="583.4545454545453" y2="610.7272727272725" /><line x1="250.0" x2="253.0" y1="610.7272727272725" y2="610.7272727272725" /><line x1="347.0" x2="347.0" y1="583.4545454545453" y2="610.7272727272725" /><line x1="350.0" x2="347.0" y1="610.7272727272725" y2="610.7272727272725" /><line x1="250.0" x2="250.0" y1="610.7272727272725" y2="637.9999999999998" /><line x1="250.0" x2="253.0" y1="637.9999999999998" y2="637.9999999999998" /><line x1="350.0" x2="350.0" y1="610.7272727272725" y2="637.9999999999998" /><line x1="350.0" x2="347.0" y1="637.9999999999998" y2="637.9999999999998" /><line x1="350.0" x2="250.0" y1="638.0" y2="638.0" /><line x1="250.0" x2="254.76190476190476" y1="338.0" y2="338.0" /><line x1="254.76190476190476" x2="259.5238095238095" y1="335.0" y2="335.0" /><line x1="254.76190476190476" x2="254.76190476190476" y1="335.0" y2="338.0" /><line x1="259.5238095238095" x2="264.2857142857143" y1="338.0" y2="338.0" /><line x1="259.5238095238095" x2="259.5238095238095" y1="335.0" y2="338.0" /><line x1="264.2857142857143" x2="269.04761904761904" y1="335.0" y2="335.0" /><line x1="264.2857142857143" x2="264.2857142857143" y1="335.0" y2="338.0" /><line x1="269.04761904761904" x2="273.8095238095238" y1="338.0" y2="338.0" /><line x1="269.04761904761904" x2="269.04761904761904" y1="335.0" y2="338.0" /><line x1="273.8095238095238" x2="278.57142857142856" y1="335.0" y2="335.0" /><line x1="273.8095238095238" x2="273.8095238095238" y1="335.0" y2="338.0" /><line x1="278.57142857142856" x2="283.3333333333333" y1="338.0" y2="338.0" /><line x1="278.57142857142856" x2="278.57142857142856" y1="335.0" y2="338.0" /><line x1="283.3333333333333" x2="288.0952380952381" y1="335.0" y2="335.0" /><line x1="283.3333333333333" x2="283.3333333333333" y1="335.0" y2="338.0" /><line x1="288.0952380952381" x2="292.85714285714283" y1="338.0" y2="338.0" /><line x1="288.0952380952381" x2="288.0952380952381" y1="335.0" y2="338.0" /><line x1="292.85714285714283" x2="297.6190476190476" y1="335.0" y2="335.0" /><line x1="292.85714285714283" x2="292.85714285714283" y1="335.0" y2="338.0" /><line x1="297.6190476190476" x2="302.38095238095235" y1="338.0" y2="338.0" /><line x1="297.6190476190476" x2="297.6190476190476" y1="335.0" y2="338.0" /><line x1="302.38095238095235" x2="307.1428571428571" y1="335.0" y2="335.0" /><line x1="302.38095238095235" x2="302.38095238095235" y1="335.0" y2="338.0" /><line x1="307.1428571428571" x2="311.90476190476187" y1="338.0" y2="338.0" /><line x1="307.1428571428571" x2="307.1428571428571" y1="335.0" y2="338.0" /><line x1="311.90476190476187" x2="316.66666666666663" y1="335.0" y2="335.0" /><line x1="311.90476190476187" x2="311.90476190476187" y1="335.0" y2="338.0" /><line x1="316.66666666666663" x2="321.4285714285714" y1="338.0" y2="338.0" /><line x1="316.66666666666663" x2="316.66666666666663" y1="335.0" y2="338.0" /><line x1="321.4285714285714" x2="326.19047619047615" y1="335.0" y2="335.0" /><line x1="321.4285714285714" x2="321.4285714285714" y1="335.0" y2="338.0" /><line x1="326.19047619047615" x2="330.9523809523809" y1="338.0" y2="338.0" /><line x1="326.19047619047615" x2="326.19047619047615" y1="335.0" y2="338.0" /><line x1="330.9523809523809" x2="335.71428571428567" y1="335.0" y2="335.0" /><line x1="330.9523809523809" x2="330.9523809523809" y1="335.0" y2="338.0" /><line x1="335.71428571428567" x2="340.4761904761904" y1="338.0" y2="338.0" /><line x1="335.71428571428567" x2="335.71428571428567" y1="335.0" y2="338.0" /><line x1="340.4761904761904" x2="345.2380952380952" y1="335.0" y2="335.0" /><line x1="340.4761904761904" x2="340.4761904761904" y1="335.0" y2="338.0" /><line x1="345.2380952380952" x2="349.99999999999994" y1="338.0" y2="338.0" /><line x1="345.2380952380952" x2="345.2380952380952" y1="335.0" y2="338.0" /></g></svg>